# xmcd CD database file
#
# Track frame offsets:
#	150
#	16231
#	30313
#	45960
#	60815
#	76607
#	90953
#	103986
#	118741
#	133340
#	147508
#	162362
#	176334
#	190545
#	203918
#	217696
#	231317
#	245802
#	259614
#	274031
#	287845
#	303601
#	316526
#	329763
#
# Disc length: 4552 seconds
#
# Revision: 0
# Processed by: cddbd v1.5.2PL0 Copyright (c) Steve Scherf et al.
# Submitted via: CDex 1.51
#
DISCID=4511c618
DTITLE=Bessie Smith - The Bessie Smith Collection
DYEAR=2014
DGENRE=Blues
TTITLE0=Beale Street Mama
TTITLE1=Keeps on A-Rainin (Papa He Can't Make No Time)
TTITLE2=Outside of  That
TTITLE3=Midnight Blues
TTITLE4=Nobody in Town Can Bake A Swet Jelly Roll Like My Man
TTITLE5=Whoa, Tillie, Take You Time
TTITLE6=I'm Going Back to My Used to Be
TTITLE7=Mistreatin' Daddy
TTITLE8=Frosty Mornin' Blues
TTITLE9=Eavesdropper Blues
TTITLE10=Sorrowful Blues
TTITLE11=House Rent Blues
TTITLE12=Weeping Willow Blues
TTITLE13=Dying Gambler's Blues
TTITLE14=Reckless Blues
TTITLE15=Sobbin' Hearted Blues
TTITLE16=Cold In Hand Blues
TTITLE17=St Louis Blues
TTITLE18=Cake Walkin' Babies
TTITLE19=J.C.Holmes Blues
TTITLE20=My Man Blues
TTITLE21=Nobody's Blues But Mine
TTITLE22=I've Been Mistreated and I don't Like It
TTITLE23=I Want Every Bit of It
EXTD=YEAR: 2014
EXTT0=
EXTT1=
EXTT2=
EXTT3=
EXTT4=
EXTT5=
EXTT6=
EXTT7=
EXTT8=
EXTT9=
EXTT10=
EXTT11=
EXTT12=
EXTT13=
EXTT14=
EXTT15=
EXTT16=
EXTT17=
EXTT18=
EXTT19=
EXTT20=
EXTT21=
EXTT22=
EXTT23=
PLAYORDER=
